<svg width="24.000000" height="24.000000" viewBox="0 0 24 24" fill="none" xmlns="http://www.w3.org/2000/svg" xmlns:xlink="http://www.w3.org/1999/xlink">
	<desc>
			Created with Pixso.
	</desc>
	<defs>
		<clipPath id="clip1_23">
			<rect rx="0.000000" width="23.000000" height="23.000000" transform="translate(0.500000 0.500000)" fill="white" fill-opacity="0"/>
		</clipPath>
	</defs>
	<rect rx="0.000000" width="23.000000" height="23.000000" transform="translate(0.500000 0.500000)" fill="#FFFFFF" fill-opacity="0"/>
	<g clip-path="url(#clip1_23)">
		<path d="M5.85 17.1C6.7 16.45 7.65 15.93 8.7 15.56C9.75 15.18 10.85 15 12 15C13.15 15 14.25 15.18 15.3 15.56C16.35 15.93 17.29 16.45 18.15 17.1C18.73 16.41 19.18 15.64 19.51 14.77C19.83 13.9 20 12.98 20 12C20 9.78 19.22 7.89 17.66 6.33C16.1 4.77 14.21 4 12 4C9.78 4 7.89 4.77 6.33 6.33C4.77 7.89 4 9.78 4 12C4 12.98 4.16 13.9 4.48 14.77C4.81 15.64 5.26 16.41 5.85 17.1ZM12 13C11.01 13 10.18 12.66 9.51 11.98C8.83 11.31 8.5 10.48 8.5 9.5C8.5 8.51 8.83 7.68 9.51 7.01C10.18 6.33 11.01 6 12 6C12.98 6 13.81 6.33 14.48 7.01C15.16 7.68 15.5 8.51 15.5 9.5C15.5 10.48 15.16 11.31 14.48 11.98C13.81 12.66 12.98 13 12 13ZM12 22C10.61 22 9.31 21.73 8.1 21.21C6.88 20.68 5.82 19.97 4.92 19.07C4.02 18.17 3.31 17.11 2.78 15.9C2.26 14.68 2 13.38 2 12C2 10.61 2.26 9.31 2.78 8.1C3.31 6.88 4.02 5.82 4.92 4.92C5.82 4.02 6.88 3.31 8.1 2.78C9.31 2.26 10.61 2 12 2C13.38 2 14.68 2.26 15.9 2.78C17.11 3.31 18.17 4.02 19.07 4.92C19.97 5.82 20.68 6.88 21.21 8.1C21.73 9.31 22 10.61 22 12C22 13.38 21.73 14.68 21.21 15.9C20.68 17.11 19.97 18.17 19.07 19.07C18.17 19.97 17.11 20.68 15.9 21.21C14.68 21.73 13.38 22 12 22ZM12 20C12.88 20 13.71 19.87 14.5 19.61C15.28 19.35 16 18.98 16.65 18.5C16 18.01 15.28 17.64 14.5 17.38C13.71 17.12 12.88 17 12 17C11.11 17 10.28 17.12 9.5 17.38C8.71 17.64 8 18.01 7.35 18.5C8 18.98 8.71 19.35 9.5 19.61C10.28 19.87 11.11 20 12 20ZM12 11C12.43 11 12.79 10.85 13.07 10.57C13.35 10.29 13.5 9.93 13.5 9.5C13.5 9.06 13.35 8.7 13.07 8.42C12.79 8.14 12.43 8 12 8C11.56 8 11.2 8.14 10.92 8.42C10.64 8.7 10.5 9.06 10.5 9.5C10.5 9.93 10.64 10.29 10.92 10.57C11.2 10.85 11.56 11 12 11Z" fill="#353535" fill-opacity="1.000000" fill-rule="nonzero"/>
	</g>
</svg>
